<?xml version="1.0" encoding="UTF-8"?>
<svg viewBox="0 0 400 400" xmlns="http://www.w3.org/2000/svg">
  <!-- Fundo circular com gradiente -->
  <defs>
    <linearGradient id="bgGradient" x1="0%" y1="0%" x2="100%" y2="100%">
      <stop offset="0%" stop-color="#2E3B84" />
      <stop offset="100%" stop-color="#1A237E" />
    </linearGradient>
    
    <!-- Gradiente para o escudo -->
    <linearGradient id="shieldGradient" x1="0%" y1="0%" x2="100%" y2="100%">
      <stop offset="0%" stop-color="#4CAF50" />
      <stop offset="100%" stop-color="#2E7D32" />
    </linearGradient>
    
    <!-- Gradiente para os caracteres -->
    <linearGradient id="charGradient" x1="0%" y1="0%" x2="100%" y2="100%">
      <stop offset="0%" stop-color="#FFFFFF" />
      <stop offset="100%" stop-color="#E0E0E0" />
    </linearGradient>
    
    <!-- Sombra para o escudo -->
    <filter id="dropShadow" x="-20%" y="-20%" width="140%" height="140%">
      <feGaussianBlur in="SourceAlpha" stdDeviation="8" />
      <feOffset dx="2" dy="2" result="offsetblur" />
      <feComponentTransfer>
        <feFuncA type="linear" slope="0.3" />
      </feComponentTransfer>
      <feMerge>
        <feMergeNode />
        <feMergeNode in="SourceGraphic" />
      </feMerge>
    </filter>
  </defs>
  
  <!-- Círculo de fundo -->
  <circle cx="200" cy="200" r="190" fill="url(#bgGradient)" />
  
  <!-- Escudo -->
  <path d="M200,70 
           C260,70 300,90 300,90
           L300,190
           C300,240 260,290 200,320
           C140,290 100,240 100,190
           L100,90
           C100,90 140,70 200,70z" 
        fill="url(#shieldGradient)" 
        filter="url(#dropShadow)"
        stroke="#FFFFFF" 
        stroke-width="6" 
        stroke-linejoin="round" />
  
  <!-- Elementos de senha dentro do escudo -->
  <!-- Símbolo de chave/cadeado -->
  <circle cx="200" cy="170" r="30" fill="#FFFFFF" stroke="#1A237E" stroke-width="4" />
  <rect x="185" y="170" width="30" height="60" rx="5" ry="5" fill="#FFFFFF" stroke="#1A237E" stroke-width="4" />
  <rect x="192" y="190" width="16" height="10" rx="2" ry="2" fill="#1A237E" />
  
  <!-- Caracteres de senha flutuando -->
  <g opacity="0.9">
    <!-- Maiúscula -->
    <text x="140" y="160" font-family="Montserrat, sans-serif" font-size="28" font-weight="bold" fill="url(#charGradient)" transform="rotate(-15, 140, 160)">A</text>
    
    <!-- Minúscula -->
    <text x="260" y="160" font-family="Montserrat, sans-serif" font-size="28" font-weight="bold" fill="url(#charGradient)" transform="rotate(15, 260, 160)">b</text>
    
    <!-- Número -->
    <text x="140" y="230" font-family="Montserrat, sans-serif" font-size="28" font-weight="bold" fill="url(#charGradient)" transform="rotate(-10, 140, 230)">7</text>
    
    <!-- Símbolo -->
    <text x="260" y="230" font-family="Montserrat, sans-serif" font-size="28" font-weight="bold" fill="url(#charGradient)" transform="rotate(10, 260, 230)">$</text>
    
    <!-- Sequência binária subtil no fundo do escudo -->
    <text x="130" y="280" font-family="monospace" font-size="16" fill="rgba(255,255,255,0.2)" transform="rotate(-5, 130, 280)">01001</text>
    <text x="220" y="280" font-family="monospace" font-size="16" fill="rgba(255,255,255,0.2)" transform="rotate(5, 220, 280)">10110</text>
  </g>
  
  <!-- Alguns círculos decorativos para representar bits/dados ao redor do escudo -->
  <circle cx="120" cy="100" r="4" fill="#FFFFFF" opacity="0.7" />
  <circle cx="280" cy="100" r="4" fill="#FFFFFF" opacity="0.7" />
  <circle cx="100" cy="230" r="4" fill="#FFFFFF" opacity="0.7" />
  <circle cx="300" cy="230" r="4" fill="#FFFFFF" opacity="0.7" />
  <circle cx="150" cy="320" r="4" fill="#FFFFFF" opacity="0.7" />
  <circle cx="250" cy="320" r="4" fill="#FFFFFF" opacity="0.7" />
  
  <!-- Linhas decorativas conectando alguns círculos -->
  <path d="M120,100 L100,230" stroke="#FFFFFF" stroke-width="1" opacity="0.3" />
  <path d="M280,100 L300,230" stroke="#FFFFFF" stroke-width="1" opacity="0.3" />
  <path d="M100,230 L150,320" stroke="#FFFFFF" stroke-width="1" opacity="0.3" />
  <path d="M300,230 L250,320" stroke="#FFFFFF" stroke-width="1" opacity="0.3" />
</svg>